<svg width="18" height="20" viewBox="0 0 18 20" fill="none" xmlns="http://www.w3.org/2000/svg">
<path d="M2.625 19.1667C2.44444 19.1667 2.29514 19.1076 2.17708 18.9896C2.05903 18.8715 2 18.7222 2 18.5417C2 18.3611 2.05903 18.2118 2.17708 18.0938C2.29514 17.9757 2.44444 17.9167 2.625 17.9167H15.375C15.5556 17.9167 15.7049 17.9757 15.8229 18.0938C15.941 18.2118 16 18.3611 16 18.5417C16 18.7222 15.941 18.8715 15.8229 18.9896C15.7049 19.1076 15.5556 19.1667 15.375 19.1667H2.625ZM2.625 2.08333C2.44444 2.08333 2.29514 2.02431 2.17708 1.90625C2.05903 1.7882 2 1.63889 2 1.45833C2 1.27778 2.05903 1.12847 2.17708 1.01042C2.29514 0.892362 2.44444 0.833334 2.625 0.833334H15.375C15.5556 0.833334 15.7049 0.892362 15.8229 1.01042C15.941 1.12847 16 1.27778 16 1.45833C16 1.63889 15.941 1.7882 15.8229 1.90625C15.7049 2.02431 15.5556 2.08333 15.375 2.08333H2.625ZM9 10.75C9.69444 10.75 10.2778 10.5139 10.75 10.0417C11.2222 9.56945 11.4583 8.98611 11.4583 8.29167C11.4583 7.59722 11.2222 7.01389 10.75 6.54167C10.2778 6.06945 9.69444 5.83333 9 5.83333C8.30556 5.83333 7.72222 6.06945 7.25 6.54167C6.77778 7.01389 6.54167 7.59722 6.54167 8.29167C6.54167 8.98611 6.77778 9.56945 7.25 10.0417C7.72222 10.5139 8.30556 10.75 9 10.75ZM1.75 16.6667C1.41667 16.6667 1.125 16.5417 0.875 16.2917C0.625 16.0417 0.5 15.75 0.5 15.4167V4.58333C0.5 4.22222 0.625 3.92361 0.875 3.6875C1.125 3.45139 1.41667 3.33333 1.75 3.33333H16.25C16.5833 3.33333 16.875 3.45833 17.125 3.70833C17.375 3.95833 17.5 4.25 17.5 4.58333V15.4167C17.5 15.75 17.375 16.0417 17.125 16.2917C16.875 16.5417 16.5833 16.6667 16.25 16.6667H1.75ZM3.58333 15.4167H14.4167C13.7361 14.5417 12.8993 13.8854 11.9063 13.4479C10.9132 13.0104 9.94444 12.7917 9 12.7917C8.04167 12.7917 7.07639 13.0104 6.10417 13.4479C5.13194 13.8854 4.29167 14.5417 3.58333 15.4167Z" fill="#384764"/>
</svg>
