<svg width="16" height="16" viewBox="0 0 16 16" fill="none" xmlns="http://www.w3.org/2000/svg">
<path d="M8.625 5.5V1.125C8.625 0.944444 8.68403 0.795139 8.80208 0.677083C8.92014 0.559028 9.06944 0.5 9.25 0.5H14.875C15.0556 0.5 15.2049 0.559028 15.3229 0.677083C15.441 0.795139 15.5 0.944444 15.5 1.125V5.5C15.5 5.68056 15.441 5.82986 15.3229 5.94792C15.2049 6.06597 15.0556 6.125 14.875 6.125H9.25C9.06944 6.125 8.92014 6.06597 8.80208 5.94792C8.68403 5.82986 8.625 5.68056 8.625 5.5ZM0.5 8V1.125C0.5 0.944444 0.559028 0.795139 0.677083 0.677083C0.795139 0.559028 0.944444 0.5 1.125 0.5H6.75C6.93056 0.5 7.07986 0.559028 7.19792 0.677083C7.31597 0.795139 7.375 0.944444 7.375 1.125V8C7.375 8.18056 7.31597 8.32986 7.19792 8.44792C7.07986 8.56597 6.93056 8.625 6.75 8.625H1.125C0.944444 8.625 0.795139 8.56597 0.677083 8.44792C0.559028 8.32986 0.5 8.18056 0.5 8ZM8.625 14.875V8C8.625 7.81944 8.68403 7.67014 8.80208 7.55208C8.92014 7.43403 9.06944 7.375 9.25 7.375H14.875C15.0556 7.375 15.2049 7.43403 15.3229 7.55208C15.441 7.67014 15.5 7.81944 15.5 8V14.875C15.5 15.0556 15.441 15.2049 15.3229 15.3229C15.2049 15.441 15.0556 15.5 14.875 15.5H9.25C9.06944 15.5 8.92014 15.441 8.80208 15.3229C8.68403 15.2049 8.625 15.0556 8.625 14.875ZM0.5 14.875V10.5C0.5 10.3194 0.559028 10.1701 0.677083 10.0521C0.795139 9.93403 0.944444 9.875 1.125 9.875H6.75C6.93056 9.875 7.07986 9.93403 7.19792 10.0521C7.31597 10.1701 7.375 10.3194 7.375 10.5V14.875C7.375 15.0556 7.31597 15.2049 7.19792 15.3229C7.07986 15.441 6.93056 15.5 6.75 15.5H1.125C0.944444 15.5 0.795139 15.441 0.677083 15.3229C0.559028 15.2049 0.5 15.0556 0.5 14.875Z" fill="white"/>
</svg>
