<svg width="16" height="18" viewBox="0 0 16 18" fill="none" xmlns="http://www.w3.org/2000/svg">
<path d="M0.5 17.1667V0.791656C0.5 0.791656 0.517361 0.791656 0.552083 0.791656C0.586806 0.791656 0.638889 0.826379 0.708333 0.895823L1.54167 1.72916C1.61111 1.7986 1.68056 1.83332 1.75 1.83332C1.81944 1.83332 1.88889 1.7986 1.95833 1.72916L2.79167 0.895823C2.86111 0.826379 2.93056 0.791656 3 0.791656C3.06944 0.791656 3.13889 0.826379 3.20833 0.895823L4.04167 1.72916C4.11111 1.7986 4.18056 1.83332 4.25 1.83332C4.31944 1.83332 4.38889 1.7986 4.45833 1.72916L5.29167 0.895823C5.36111 0.826379 5.43056 0.791656 5.5 0.791656C5.56944 0.791656 5.63889 0.826379 5.70833 0.895823L6.54167 1.72916C6.61111 1.7986 6.68056 1.83332 6.75 1.83332C6.81944 1.83332 6.88889 1.7986 6.95833 1.72916L7.79167 0.895823C7.86111 0.826379 7.93056 0.791656 8 0.791656C8.06944 0.791656 8.13889 0.826379 8.20833 0.895823L9.04167 1.72916C9.11111 1.7986 9.18056 1.83332 9.25 1.83332C9.31944 1.83332 9.38889 1.7986 9.45833 1.72916L10.2917 0.895823C10.3611 0.826379 10.4306 0.791656 10.5 0.791656C10.5694 0.791656 10.6389 0.826379 10.7083 0.895823L11.5417 1.72916C11.6111 1.7986 11.6806 1.83332 11.75 1.83332C11.8194 1.83332 11.8889 1.7986 11.9583 1.72916L12.7917 0.895823C12.8611 0.826379 12.9306 0.791656 13 0.791656C13.0694 0.791656 13.1389 0.826379 13.2083 0.895823L14.0417 1.72916C14.1111 1.7986 14.1806 1.83332 14.25 1.83332C14.3194 1.83332 14.3889 1.7986 14.4583 1.72916L15.2917 0.895823C15.3611 0.826379 15.4132 0.791656 15.4479 0.791656C15.4826 0.791656 15.5 0.791656 15.5 0.791656V17.1667C15.5 17.1667 15.4826 17.1736 15.4479 17.1875C15.4132 17.2014 15.3611 17.1736 15.2917 17.1042L14.4583 16.2708C14.3889 16.2014 14.3194 16.1667 14.25 16.1667C14.1806 16.1667 14.1111 16.2014 14.0417 16.2708L13.2083 17.1042C13.1389 17.1736 13.0694 17.2083 13 17.2083C12.9306 17.2083 12.8611 17.1736 12.7917 17.1042L11.9583 16.2708C11.8889 16.2014 11.8194 16.1667 11.75 16.1667C11.6806 16.1667 11.6111 16.2014 11.5417 16.2708L10.7083 17.1042C10.6389 17.1736 10.5694 17.2083 10.5 17.2083C10.4306 17.2083 10.3611 17.1736 10.2917 17.1042L9.45833 16.2708C9.38889 16.2014 9.31944 16.1667 9.25 16.1667C9.18056 16.1667 9.11111 16.2014 9.04167 16.2708L8.20833 17.1042C8.13889 17.1736 8.06944 17.2083 8 17.2083C7.93056 17.2083 7.86111 17.1736 7.79167 17.1042L6.95833 16.2708C6.88889 16.2014 6.81944 16.1667 6.75 16.1667C6.68056 16.1667 6.61111 16.2014 6.54167 16.2708L5.70833 17.1042C5.63889 17.1736 5.56944 17.2083 5.5 17.2083C5.43056 17.2083 5.36111 17.1736 5.29167 17.1042L4.45833 16.2708C4.38889 16.2014 4.31944 16.1667 4.25 16.1667C4.18056 16.1667 4.11111 16.2014 4.04167 16.2708L3.20833 17.1042C3.13889 17.1736 3.06944 17.2083 3 17.2083C2.93056 17.2083 2.86111 17.1736 2.79167 17.1042L1.95833 16.2708C1.88889 16.2014 1.81944 16.1667 1.75 16.1667C1.68056 16.1667 1.61111 16.2014 1.54167 16.2708L0.708333 17.1042C0.638889 17.1736 0.586806 17.2014 0.552083 17.1875C0.517361 17.1736 0.5 17.1667 0.5 17.1667ZM3.5625 12.8333H12.5208C12.7014 12.8333 12.8507 12.7743 12.9687 12.6562C13.0868 12.5382 13.1458 12.3889 13.1458 12.2083C13.1458 12.0278 13.0868 11.8785 12.9687 11.7604C12.8507 11.6424 12.7014 11.5833 12.5208 11.5833H3.5625C3.38194 11.5833 3.23264 11.6424 3.11458 11.7604C2.99653 11.8785 2.9375 12.0278 2.9375 12.2083C2.9375 12.3889 2.99653 12.5382 3.11458 12.6562C3.23264 12.7743 3.38194 12.8333 3.5625 12.8333ZM3.5625 9.62499H12.5208C12.7014 9.62499 12.8507 9.56596 12.9687 9.44791C13.0868 9.32985 13.1458 9.18055 13.1458 8.99999C13.1458 8.81944 13.0868 8.67013 12.9687 8.55207C12.8507 8.43402 12.7014 8.37499 12.5208 8.37499H3.5625C3.38194 8.37499 3.23264 8.43402 3.11458 8.55207C2.99653 8.67013 2.9375 8.81944 2.9375 8.99999C2.9375 9.18055 2.99653 9.32985 3.11458 9.44791C3.23264 9.56596 3.38194 9.62499 3.5625 9.62499ZM3.5625 6.39582H12.5208C12.7014 6.39582 12.8507 6.3368 12.9687 6.21874C13.0868 6.10068 13.1458 5.95138 13.1458 5.77082C13.1458 5.59027 13.0868 5.44096 12.9687 5.32291C12.8507 5.20485 12.7014 5.14582 12.5208 5.14582H3.5625C3.38194 5.14582 3.23264 5.20485 3.11458 5.32291C2.99653 5.44096 2.9375 5.59027 2.9375 5.77082C2.9375 5.95138 2.99653 6.10068 3.11458 6.21874C3.23264 6.3368 3.38194 6.39582 3.5625 6.39582Z" fill="#384764"/>
</svg>
