<svg width="18" height="18" viewBox="0 0 18 18" fill="none" xmlns="http://www.w3.org/2000/svg">
<path d="M11.792 10.0832L14.167 7.70817C14.292 7.58317 14.3545 7.43734 14.3545 7.27067C14.3545 7.104 14.292 6.95817 14.167 6.83317L11.792 4.43734C11.6809 4.32623 11.5455 4.29845 11.3857 4.354C11.226 4.40956 11.0628 4.43734 10.8962 4.43734C10.7712 4.56234 10.7087 4.71511 10.7087 4.89567C10.7087 5.07623 10.7712 5.229 10.8962 5.354L12.1878 6.64567H8.77116C8.60449 6.64567 8.46213 6.7047 8.34408 6.82275C8.22602 6.94081 8.16699 7.09012 8.16699 7.27067C8.16699 7.45123 8.22602 7.60053 8.34408 7.71859C8.46213 7.83664 8.61144 7.89567 8.79199 7.89567H12.1878L10.8753 9.20817C10.7503 9.33317 10.6878 9.479 10.6878 9.64567C10.6878 9.81234 10.7573 9.95817 10.8962 10.0832C11.0073 10.2082 11.1531 10.2707 11.3337 10.2707C11.5142 10.2707 11.667 10.2082 11.792 10.0832ZM6.22949 13.729C6.35449 13.854 6.50033 13.9165 6.66699 13.9165C6.83366 13.9165 6.98644 13.8471 7.12533 13.7082C7.23644 13.5971 7.29199 13.4512 7.29199 13.2707C7.29199 13.0901 7.23644 12.9373 7.12533 12.8123L5.81283 11.5207H9.22949C9.39616 11.5207 9.53852 11.4616 9.65658 11.3436C9.77463 11.2255 9.83366 11.0762 9.83366 10.8957C9.83366 10.7151 9.77463 10.5658 9.65658 10.4478C9.53852 10.3297 9.38921 10.2707 9.20866 10.2707H5.81283L7.12533 8.95817C7.25033 8.83317 7.31283 8.68734 7.31283 8.52067C7.31283 8.354 7.25033 8.20817 7.12533 8.08317C7.00033 7.95817 6.84755 7.89567 6.66699 7.89567C6.48644 7.89567 6.3406 7.95817 6.22949 8.08317L3.83366 10.4582C3.70866 10.5832 3.64616 10.729 3.64616 10.8957C3.64616 11.0623 3.70866 11.2082 3.83366 11.3332L6.22949 13.729ZM9.00033 17.3332C7.86144 17.3332 6.78505 17.1144 5.77116 16.6769C4.75727 16.2394 3.87185 15.6422 3.11491 14.8853C2.35796 14.1283 1.76074 13.2429 1.32324 12.229C0.885742 11.2151 0.666992 10.1387 0.666992 8.99984C0.666992 7.86095 0.885742 6.78456 1.32324 5.77067C1.76074 4.75678 2.35796 3.87137 3.11491 3.11442C3.87185 2.35748 4.75727 1.76025 5.77116 1.32275C6.78505 0.885254 7.86144 0.666504 9.00033 0.666504C10.1392 0.666504 11.2156 0.885254 12.2295 1.32275C13.2434 1.76025 14.1288 2.35748 14.8857 3.11442C15.6427 3.87137 16.2399 4.75678 16.6774 5.77067C17.1149 6.78456 17.3337 7.86095 17.3337 8.99984C17.3337 10.1387 17.1149 11.2151 16.6774 12.229C16.2399 13.2429 15.6427 14.1283 14.8857 14.8853C14.1288 15.6422 13.2434 16.2394 12.2295 16.6769C11.2156 17.1144 10.1392 17.3332 9.00033 17.3332Z" fill="#384764"/>
</svg>
