<svg width="19" height="15" viewBox="0 0 19 15" fill="none" xmlns="http://www.w3.org/2000/svg">
<path d="M6.66634 14.6667C5.04134 14.6667 3.66287 14.1007 2.53092 12.9687C1.39898 11.8368 0.833008 10.4583 0.833008 8.83333C0.833008 7.125 1.44065 5.73264 2.65592 4.65625C3.8712 3.57986 5.22884 3.09028 6.72884 3.1875L5.37467 1.83333C5.24967 1.70833 5.18717 1.55903 5.18717 1.38542C5.18717 1.21181 5.24967 1.0625 5.37467 0.9375C5.49967 0.8125 5.64898 0.75 5.82259 0.75C5.9962 0.75 6.14551 0.8125 6.27051 0.9375L8.72884 3.39583C8.79829 3.46528 8.8469 3.53472 8.87467 3.60417C8.90245 3.67361 8.91634 3.75 8.91634 3.83333C8.91634 3.91667 8.90245 3.99306 8.87467 4.0625C8.8469 4.13194 8.79829 4.20139 8.72884 4.27083L6.27051 6.72917C6.14551 6.85417 5.99967 6.91319 5.83301 6.90625C5.66634 6.89931 5.52051 6.83333 5.39551 6.70833C5.27051 6.58333 5.20801 6.43403 5.20801 6.26042C5.20801 6.08681 5.27051 5.9375 5.39551 5.8125L6.79134 4.41667C5.4719 4.38889 4.35731 4.79167 3.44759 5.625C2.53787 6.45833 2.08301 7.52778 2.08301 8.83333C2.08301 10.0972 2.53092 11.1771 3.42676 12.0729C4.32259 12.9688 5.40245 13.4167 6.66634 13.4167H8.54134C8.7219 13.4167 8.8712 13.4757 8.98926 13.5937C9.10731 13.7118 9.16634 13.8611 9.16634 14.0417C9.16634 14.2222 9.10731 14.3715 8.98926 14.4896C8.8712 14.6076 8.7219 14.6667 8.54134 14.6667H6.66634ZM12.083 14.6667C11.7358 14.6667 11.4406 14.5451 11.1976 14.3021C10.9545 14.059 10.833 13.7639 10.833 13.4167V10.0833C10.833 9.73611 10.9545 9.44097 11.1976 9.19792C11.4406 8.95486 11.7358 8.83333 12.083 8.83333H17.083C17.4302 8.83333 17.7254 8.95486 17.9684 9.19792C18.2115 9.44097 18.333 9.73611 18.333 10.0833V13.4167C18.333 13.7639 18.2115 14.059 17.9684 14.3021C17.7254 14.5451 17.4302 14.6667 17.083 14.6667H12.083ZM12.083 13.4167H17.083V10.0833H12.083V13.4167ZM12.083 7.16667C11.7358 7.16667 11.4406 7.04514 11.1976 6.80208C10.9545 6.55903 10.833 6.26389 10.833 5.91667V2.58333C10.833 2.23611 10.9545 1.94097 11.1976 1.69792C11.4406 1.45486 11.7358 1.33333 12.083 1.33333H17.083C17.4302 1.33333 17.7254 1.45486 17.9684 1.69792C18.2115 1.94097 18.333 2.23611 18.333 2.58333V5.91667C18.333 6.26389 18.2115 6.55903 17.9684 6.80208C17.7254 7.04514 17.4302 7.16667 17.083 7.16667H12.083Z" fill="#384764"/>
</svg>
